<svg width="139" height="57" viewBox="0 0 139 57" fill="none" xmlns="http://www.w3.org/2000/svg">
<path d="M22.3976 7.34814H26.359V23.1057H22.3976V7.34814ZM22.2637 0.910156H26.4929V4.86168H22.2637V0.910156Z" fill="white"/>
<path d="M30.9279 17.7321V10.5731H28.2407V7.34718H30.9279V2.24023H34.8893V7.34718H38.1143L39.5225 10.5731H34.8893V17.4617C34.8893 18.3583 35.0417 19.0469 35.3418 19.5276C35.6419 20.0106 36.1313 20.2509 36.8008 20.2509C37.4264 20.2509 37.9112 20.1307 38.2944 19.9805C39.0862 19.6709 39.4371 19.3404 39.7326 19.0585L41.03 21.7945C40.2474 22.4208 39.4741 22.8806 38.7146 23.1718C37.955 23.4606 37.1032 23.6085 36.1613 23.6085C34.2383 23.6085 32.8809 23.0701 32.1006 21.9956C31.318 20.9187 30.9256 19.4975 30.9256 17.7298" fill="white"/>
<path d="M40.5493 29.0234L42.3268 26.2342C42.5531 26.4122 42.7978 26.5878 43.0656 26.7542C43.3357 26.9206 43.6704 27.0061 44.0721 27.0061C44.61 27.0061 45.0578 26.7796 45.4134 26.3336C45.7735 25.8853 46.129 25.192 46.4891 24.2492L46.9947 22.9736L39.9121 7.3501H44.4784L48.9777 18.1371L52.9392 7.3501H57.2677L50.6861 23.1077C50.3721 23.8679 50.0535 24.6698 49.7303 25.5109C49.4071 26.3521 49.0262 27.1239 48.5899 27.8287C48.1536 28.5335 47.5995 29.1112 46.9254 29.5572C46.2537 30.0055 45.3926 30.2297 44.3422 30.2297C43.4465 30.2297 42.7031 30.1187 42.1098 29.8923C41.5165 29.6704 40.9971 29.377 40.5493 29.0211" fill="white"/>
<path d="M56.9375 21.1917L59.3199 18.6059C59.8116 19.0981 60.4326 19.5071 61.1829 19.8329C61.9309 20.1588 62.7873 20.3182 63.75 20.3182C64.6018 20.3182 65.2829 20.2004 65.7954 19.9647C66.3102 19.7313 66.5664 19.3638 66.5664 18.8739C66.5664 18.5597 66.4695 18.2847 66.2802 18.0513C66.0909 17.8179 65.7169 17.5799 65.1536 17.3465C64.5949 17.1131 63.7338 16.8612 62.5703 16.5908C61.8755 16.4129 61.1367 16.1425 60.3541 15.782C59.5715 15.4262 58.9044 14.9155 58.3572 14.2546C57.8078 13.5937 57.5354 12.7595 57.5354 11.7496C57.5354 10.7398 57.854 9.80161 58.4911 9.05983C59.1283 8.32037 59.9432 7.76115 60.9405 7.37986C61.9378 6.99857 62.9605 6.80908 64.0132 6.80908C65.4029 6.80908 66.5849 6.95466 67.5706 7.24583C68.5564 7.53931 69.4267 7.97374 70.1908 8.55607L68.1455 11.3452C67.7184 11.031 67.1551 10.7444 66.451 10.4879C65.7469 10.2314 64.9343 10.102 64.0178 10.102C63.1013 10.102 62.4503 10.243 62.0717 10.5203C61.6908 10.8022 61.5015 11.1396 61.5015 11.544C61.5015 12.0362 61.8085 12.4244 62.4249 12.7017C63.0413 12.9836 63.997 13.2771 65.2967 13.5914C66.8873 13.9473 68.157 14.5042 69.1058 15.2529C70.0569 16.0039 70.5325 17.1408 70.5325 18.666C70.5325 19.6735 70.2254 20.5539 69.6091 21.3026C68.9927 22.0513 68.1755 22.6291 67.1597 23.0311C66.1439 23.4332 65.0174 23.6366 63.7869 23.6366C62.3302 23.6366 61.0074 23.4286 59.807 23.0173C58.6112 22.6083 57.6555 21.9982 56.9398 21.1917" fill="white"/>
<path d="M84.3647 18.5049L86.7148 21.0607C85.9761 21.8441 85.0989 22.4703 84.0785 22.9417C83.0604 23.4132 81.8923 23.6465 80.5695 23.6465C78.7804 23.6465 77.1898 23.2606 75.9247 22.5558C74.6597 21.851 73.697 20.8643 73.0368 19.6003C72.3765 18.3362 72.0464 16.8735 72.0464 15.2143C72.0464 13.6915 72.4019 12.2911 73.1222 11.0155C73.8378 9.73994 74.8305 8.71856 76.0933 7.95829C77.356 7.19803 78.9281 6.64111 80.6064 6.64111C81.8808 6.64111 83.1158 6.7867 84.1662 7.24655C85.2189 7.70641 86.1123 8.32571 86.851 9.1114L84.3347 11.6672C83.9077 11.1519 83.3905 10.7475 82.7742 10.4586C82.1578 10.1698 81.4052 10.0866 80.6226 10.0866C79.6138 10.0866 78.665 10.5141 78.0024 10.9855C77.3422 11.4569 76.8505 12.0693 76.5249 12.818C76.1994 13.569 76.0402 14.3685 76.0402 15.2212C76.0402 16.0046 76.2041 16.7787 76.5249 17.5413C76.8505 18.3016 77.3445 18.9324 78.0024 19.4223C78.6627 19.9145 79.5584 20.1942 80.5672 20.1942C81.3498 20.1942 82.0724 20.0416 82.7326 19.7412C83.3998 19.4339 83.9423 19.0249 84.367 18.5096" fill="white"/>
<path d="M98.1121 17.532V15.986C97.5973 15.9421 97.0363 15.9075 96.4338 15.8867C95.8289 15.8659 95.3695 15.8543 95.0579 15.8543C93.7836 15.8543 92.8879 16.1062 92.3731 16.61C91.8583 17.1137 91.602 17.6891 91.602 18.3431C91.602 18.997 91.8421 19.5401 92.3246 19.9214C92.8071 20.3027 93.5181 20.4922 94.4554 20.4922C95.081 20.4922 95.6697 20.3581 96.2191 20.0878C96.7685 19.8174 97.221 19.4615 97.5788 19.0132C97.9343 18.5626 98.1144 18.0681 98.1144 17.532M98.2137 23.1103L98.1144 21.6314C97.6873 22.1467 97.0317 22.6066 96.1498 23.0087C95.268 23.413 94.2984 23.6141 93.248 23.6141C92.3961 23.6141 91.5535 23.4362 90.7132 23.0757C89.8752 22.7198 89.178 22.156 88.6309 21.3957C88.0815 20.6354 87.8091 19.6718 87.8091 18.5071C87.8091 16.7162 88.4462 15.3251 89.7229 14.3407C90.9972 13.354 92.6663 12.8618 94.7255 12.8618C95.1064 12.8618 95.5588 12.8733 96.0852 12.8941C96.6115 12.9172 97.2856 12.9496 98.1167 12.9935V12.6238C98.1167 11.8404 97.8027 11.2257 97.1748 10.7751C96.5492 10.3268 95.7504 10.135 94.7462 10.135C93.6266 10.135 92.7609 10.4493 92.0891 10.7381C91.4173 11.0316 90.9071 11.3112 90.3946 11.6486L88.3931 9.07894C88.8179 8.76467 89.4251 8.36721 90.0091 8.0668C90.5909 7.76639 91.2742 7.44287 92.126 7.24183C92.9779 7.04078 94.0121 6.81201 95.2657 6.81201C97.281 6.81201 98.8901 7.34351 100.102 8.40649C101.309 9.47178 101.914 10.8444 101.914 12.5244V23.108H98.216L98.2137 23.1103Z" fill="white"/>
<path d="M108.841 14.5723V19.2425C109.623 19.8918 110.808 20.2177 112.398 20.2177C113.361 20.2177 114.178 19.9796 114.848 19.5129C115.519 19.0414 116.034 18.4337 116.392 17.6804C116.748 16.9317 116.93 16.1413 116.93 15.3094C116.93 14.4128 116.801 13.5994 116.544 12.8738C116.288 12.1459 115.854 11.5636 115.252 11.1268C114.647 10.6901 113.843 10.4706 112.835 10.4706C112.027 10.4706 111.329 10.6832 110.736 11.1083C110.143 11.5358 109.679 12.065 109.342 12.7028C109.012 13.3429 108.841 13.9645 108.841 14.57M104.914 29.8261V7.34631H108.742L108.843 9.12796C109.247 8.67966 109.854 8.2198 110.674 7.7507C111.489 7.27929 112.548 7.0459 113.846 7.0459C115.457 7.0459 116.785 7.44336 117.826 8.2406C118.867 9.03553 119.645 10.0615 120.16 11.314C120.674 12.5688 120.931 13.8998 120.931 15.3118C120.931 16.5434 120.753 17.5972 120.393 18.4683C120.037 19.3395 119.585 20.1044 119.052 20.7538C118.156 21.8075 117.177 22.5516 116.113 22.9907C115.049 23.4274 113.959 23.6469 112.842 23.6469C111.812 23.6469 111.034 23.5614 110.508 23.3951C109.981 23.2287 109.425 23.0323 108.848 22.8058V29.8284H104.916L104.914 29.8261Z" fill="white"/>
<path d="M126.883 13.5666H134.602C134.602 13.0282 134.462 12.4967 134.185 11.9721C133.903 11.4452 133.497 11.0085 132.959 10.6619C132.421 10.3175 131.74 10.1419 130.913 10.1419C130.038 10.1419 129.309 10.3152 128.716 10.6619C128.122 11.0108 127.67 11.4452 127.356 11.9721C127.04 12.4967 126.883 13.0282 126.883 13.5666ZM136.318 18.4032L138.467 20.8226C138.4 20.8896 138.215 21.0745 137.911 21.3749C137.61 21.6753 137.172 22.0011 136.602 22.3501C136.031 22.699 135.304 22.9994 134.42 23.2582C133.534 23.5147 132.479 23.6441 131.248 23.6441C129.57 23.6441 128.108 23.279 126.869 22.5534C125.627 21.8255 124.659 20.8134 123.967 19.5124C123.274 18.2137 122.926 16.7232 122.926 15.0432C122.926 13.4973 123.267 12.1015 123.948 10.8583C124.629 9.61505 125.571 8.62833 126.77 7.90273C127.965 7.17481 129.348 6.81201 130.916 6.81201C132.368 6.81201 133.587 7.06851 134.572 7.58383C135.558 8.09915 136.352 8.79009 136.955 9.64972C137.56 10.514 137.996 11.4822 138.264 12.5544C138.534 13.629 138.668 14.7289 138.668 15.8474V16.4181H126.917C126.917 17.1784 127.137 17.8462 127.573 18.417C128.009 18.9878 128.563 19.4361 129.233 19.7596C129.904 20.0854 130.586 20.2449 131.283 20.2449C132.312 20.2449 133.162 20.127 133.831 19.8913C134.503 19.6579 135.041 19.3945 135.443 19.101C135.847 18.8168 136.138 18.5834 136.318 18.4008" fill="white"/>
<path d="M17.6257 16.4549L20.5783 19.0107C20.1304 19.6832 19.4587 20.3764 18.563 21.0951C17.6672 21.8114 16.6053 22.4169 15.3726 22.9091C14.1421 23.4013 12.8078 23.6462 11.3788 23.6462C9.16259 23.6462 7.19802 23.1425 5.48739 22.1326C3.77677 21.1251 2.4332 19.7409 1.459 17.9824C0.484795 16.2238 0 14.2365 0 12.0181C0 10.3821 0.281643 8.84997 0.838 7.41494C1.39667 5.97991 2.18618 4.72282 3.20656 3.63441C4.22462 2.54832 5.43891 1.69793 6.84943 1.07863C8.25764 0.463949 9.81359 0.154297 11.515 0.154297C13.7312 0.154297 15.5688 0.591044 17.037 1.46454C18.5006 2.34035 19.6826 3.40102 20.5783 4.65811L17.5911 7.31326C16.8754 6.28263 16.042 5.45535 15.0909 4.8268C14.1375 4.20057 12.9486 3.88398 11.515 3.88398C10.0814 3.88398 8.80245 4.25372 7.73822 4.99318C6.67398 5.73034 5.85907 6.71476 5.28886 7.93488C4.71865 9.155 4.43239 10.4837 4.43239 11.9188C4.43239 13.3538 4.71865 14.6525 5.28886 15.8171C5.85907 16.9818 6.66013 17.9131 7.68974 18.6063C8.71935 19.2996 9.92671 19.6485 11.3141 19.6485C12.6115 19.6485 13.6596 19.459 14.4538 19.0777C15.2479 18.6964 15.8874 18.2551 16.3652 17.749C16.8454 17.2475 17.2632 16.8177 17.6234 16.4595" fill="white"/>
<path d="M12.891 47.5191V43.9465H20.867V53.1667C19.999 53.9917 18.8585 54.715 17.4457 55.3389C16.0329 55.9628 14.2045 56.2748 11.956 56.2748C9.52974 56.2748 7.45205 55.7618 5.71372 54.7381C3.9777 53.7144 2.64337 52.3279 1.70841 50.5809C0.773455 48.8339 0.307129 46.879 0.307129 44.7183C0.307129 43.0938 0.584154 41.5663 1.14051 40.1406C1.69687 38.7148 2.47946 37.4623 3.49291 36.3831C4.50405 35.304 5.71142 34.4582 7.11501 33.8435C8.51629 33.2312 10.0607 32.9238 11.7552 32.9238C13.9575 32.9238 15.7859 33.356 17.2449 34.2271C18.7016 35.096 19.8766 36.1521 20.7654 37.3999L17.7943 40.0389C17.081 39.0152 16.2545 38.1902 15.3103 37.5663C14.3638 36.9424 13.1795 36.6304 11.7552 36.6304C10.3308 36.6304 9.05649 37.0001 8.00148 37.7327C6.94648 38.4675 6.13388 39.4427 5.56598 40.6559C4.99808 41.8714 4.71413 43.1909 4.71413 44.6143C4.71413 46.1949 5.05348 47.5768 5.73219 48.7553C6.4109 49.9339 7.31123 50.8467 8.43549 51.4937C9.55744 52.1407 10.7879 52.4619 12.1222 52.4619C14.1676 52.4619 15.7466 51.9743 16.8616 50.9922V47.5191H12.8887H12.891Z" fill="white"/>
<path d="M27.2914 33.4556H23.353V55.7366H27.2914V33.4556Z" fill="white"/>
<path d="M37.8203 52.864C38.8199 52.864 39.651 52.6099 40.3043 52.0945C40.9599 51.5815 41.4493 50.9414 41.7725 50.1742C42.0957 49.407 42.255 48.6445 42.255 47.8865C42.255 47.1286 42.0934 46.3729 41.7725 45.615C41.4516 44.857 40.9599 44.2238 40.3043 43.7108C39.6463 43.1978 38.8199 42.9413 37.8203 42.9413C36.8207 42.9413 35.9896 43.1978 35.3363 43.7108C34.6784 44.2238 34.1913 44.857 33.8681 45.615C33.5449 46.3729 33.3833 47.1309 33.3833 47.8865C33.3833 48.6422 33.5449 49.4047 33.8681 50.1742C34.189 50.9437 34.6807 51.5815 35.3363 52.0945C35.9919 52.6099 36.8207 52.864 37.8203 52.864ZM29.4126 47.8865C29.4126 46.3729 29.7681 44.9818 30.4791 43.7108C31.1902 42.4399 32.1736 41.4277 33.4318 40.6698C34.6899 39.9118 36.1512 39.5352 37.8203 39.5352C39.4894 39.5352 40.9507 39.9164 42.2088 40.6698C43.467 41.4277 44.4504 42.4399 45.1614 43.7108C45.8725 44.9818 46.228 46.3706 46.228 47.8865C46.228 49.4024 45.8725 50.7912 45.1614 52.0622C44.4481 53.3331 43.467 54.3499 42.2088 55.1171C40.9507 55.8866 39.4894 56.2702 37.8203 56.2702C36.1512 56.2702 34.6899 55.8866 33.4318 55.1171C32.1736 54.3476 31.1902 53.3285 30.4791 52.0622C29.7658 50.7912 29.4126 49.4024 29.4126 47.8865Z" fill="white"/>
<path d="M52.1065 46.6181V52.5292C52.4204 52.617 52.7413 52.6956 53.0737 52.7626C53.4062 52.8296 53.9302 52.862 54.6435 52.862C55.7101 52.862 56.6081 52.6216 57.3307 52.1456C58.0533 51.6649 58.605 51.0433 58.9813 50.2761C59.3576 49.5066 59.5492 48.6909 59.5492 47.822C59.5492 47.0202 59.4153 46.2622 59.1498 45.5505C58.8843 44.8387 58.4711 44.2633 57.9171 43.8289C57.363 43.3945 56.6358 43.1772 55.747 43.1772C54.5697 43.1772 53.6647 43.4846 53.0437 44.097C52.4181 44.7093 52.1088 45.5482 52.1088 46.6204M48.1704 55.2375V33.4556H52.1088V41.1368C52.3743 40.871 52.8914 40.5683 53.6601 40.2356C54.4265 39.9028 55.3315 39.7341 56.3796 39.7341C57.8917 39.7341 59.1821 40.0969 60.251 40.8202C61.3175 41.5435 62.1371 42.5048 62.7026 43.7087C63.2682 44.9127 63.5545 46.2483 63.5545 47.718C63.5545 49.2778 63.1921 50.7036 62.4695 51.9931C61.7469 53.2825 60.7265 54.3201 59.4176 55.1012C58.104 55.8799 56.5342 56.2727 54.7105 56.2727C53.3531 56.2727 52.1018 56.1618 50.9568 55.94C49.8118 55.7135 48.8814 55.4801 48.1704 55.2375Z" fill="white"/>
<path d="M75.267 50.1937V48.657C74.7545 48.6131 74.2005 48.5784 73.5979 48.5576C72.9954 48.5345 72.5406 48.5253 72.229 48.5253C70.9593 48.5253 70.0705 48.7772 69.5603 49.2763C69.0478 49.7778 68.7916 50.3508 68.7916 50.9979C68.7916 51.6449 69.0316 52.188 69.5072 52.5692C69.9874 52.9459 70.6915 53.1377 71.6264 53.1377C72.2497 53.1377 72.8338 53.0037 73.3786 52.7379C73.9234 52.4722 74.3736 52.114 74.7291 51.6703C75.0892 51.2197 75.267 50.7298 75.267 50.196M75.3663 55.742L75.267 54.2723C74.8422 54.7853 74.1935 55.2406 73.314 55.6427C72.4344 56.0424 71.4718 56.2458 70.4283 56.2458C69.5834 56.2458 68.7454 56.0678 67.9074 55.7097C67.074 55.3538 66.3837 54.7969 65.8366 54.0389C65.2895 53.281 65.0171 52.3243 65.0171 51.1643C65.0171 49.3826 65.6519 48.003 66.9193 47.0232C68.189 46.0434 69.8465 45.5535 71.8919 45.5535C72.2682 45.5535 72.7184 45.5651 73.2424 45.5859C73.7665 45.609 74.4382 45.6414 75.2624 45.6853V45.3155C75.2624 44.5368 74.9484 43.9244 74.3274 43.4784C73.7041 43.0347 72.8915 42.8106 71.8919 42.8106C70.7792 42.8106 69.8904 42.9562 69.2232 43.2427C68.5561 43.5316 67.9651 43.8435 67.4549 44.1786L65.6542 41.5073C66.079 41.193 66.5777 40.8903 67.1571 40.5876C67.7366 40.2848 68.4453 40.0376 69.2948 39.8365C70.1397 39.6378 71.1855 39.5361 72.4321 39.5361C74.4336 39.5361 76.0357 40.0653 77.2385 41.1214C78.4389 42.1797 79.0392 43.5454 79.0392 45.2115V55.7351H75.3639L75.3663 55.742Z" fill="white"/>
<path d="M85.2284 33.4561H81.29V55.7371H85.2284V33.4561Z" fill="white"/>
</svg>
