<svg width="177" height="81" viewBox="0 0 177 81" fill="none" xmlns="http://www.w3.org/2000/svg">
<path d="M139.864 13.8216C139.977 13.8499 140.091 13.8782 140.212 13.8852C140.808 13.8852 141.291 13.4044 141.291 12.8105C141.291 12.2165 140.808 11.7357 140.212 11.7357C139.615 11.7357 139.132 12.2165 139.132 12.8105C139.132 12.9307 139.16 13.058 139.203 13.164L133.087 19.252C133.037 19.2308 132.98 19.2025 132.938 19.1883C132.739 19.1459 132.54 19.1742 132.348 19.252L126.275 13.2065C126.325 13.0862 126.353 12.9519 126.353 12.8176C126.353 12.2236 125.87 11.7428 125.273 11.7428C124.677 11.7428 124.194 12.2236 124.194 12.8176C124.194 13.4115 124.677 13.8923 125.273 13.8923C125.387 13.8923 125.486 13.8711 125.593 13.8287L131.709 19.9166C131.709 19.9166 131.681 19.9873 131.659 20.0227C131.538 20.6096 131.915 21.1752 132.497 21.2954C133.08 21.4156 133.655 21.0409 133.776 20.4611C133.804 20.2772 133.79 20.1005 133.733 19.9237L139.864 13.8216ZM154.298 19.1459C154.184 19.1459 154.085 19.1671 153.978 19.2096L147.862 13.1216C147.862 13.1216 147.89 13.0509 147.912 13.0155C148.033 12.4287 147.656 11.863 147.074 11.7428C146.491 11.6226 145.916 11.9973 145.795 12.5772C145.767 12.761 145.781 12.9378 145.838 13.1145L139.707 19.2166C139.594 19.1883 139.48 19.1601 139.359 19.153C138.763 19.153 138.28 19.6338 138.28 20.2277C138.28 20.8217 138.763 21.3025 139.359 21.3025C139.956 21.3025 140.439 20.8217 140.439 20.2277C140.439 20.1075 140.411 19.9803 140.368 19.8742L146.484 13.7863C146.534 13.8075 146.591 13.8358 146.633 13.8499C146.832 13.8923 147.031 13.864 147.223 13.7863L153.296 19.8318C153.246 19.952 153.218 20.0863 153.218 20.2207C153.218 20.8146 153.701 21.2954 154.298 21.2954C154.894 21.2954 155.377 20.8146 155.377 20.2207C155.377 19.6267 154.894 19.1459 154.298 19.1459ZM161.493 19.1601C161.38 19.1601 161.28 19.1813 161.174 19.2237L155.029 13.1075C155.058 13.0155 155.086 12.9095 155.093 12.8034C155.093 12.2095 154.61 11.7287 154.014 11.7287C153.417 11.7287 152.934 12.2095 152.934 12.8034C152.934 13.3974 153.417 13.8782 154.014 13.8782C154.148 13.8782 154.283 13.8499 154.418 13.8004L160.492 19.8459C160.442 19.9661 160.414 20.1005 160.414 20.2348C160.414 20.8288 160.897 21.3096 161.493 21.3096C162.09 21.3096 162.573 20.8288 162.573 20.2348C162.573 19.6409 162.09 19.1601 161.493 19.1601ZM110.285 13.7863C110.335 13.8075 110.392 13.8358 110.434 13.8499C110.633 13.8923 110.832 13.864 111.024 13.7863L113.354 16.1196C113.304 16.2398 113.276 16.3742 113.276 16.5085C113.276 17.1025 113.759 17.5833 114.355 17.5833C114.952 17.5833 115.435 17.1025 115.435 16.5085C115.435 15.9146 114.952 15.4337 114.355 15.4337C114.242 15.4337 114.142 15.455 114.036 15.4974L111.677 13.1216C111.677 13.1216 111.706 13.0509 111.727 13.0155C111.848 12.4287 111.471 11.863 110.889 11.7428C110.307 11.6226 109.731 11.9973 109.61 12.5772C109.582 12.761 109.596 12.9378 109.653 13.1145L103.523 19.2166H103.516C103.402 19.1883 103.288 19.1601 103.168 19.153C102.571 19.153 102.088 19.6338 102.088 20.2277C102.088 20.8217 102.571 21.3025 103.168 21.3025C103.764 21.3025 104.247 20.8217 104.247 20.2277C104.247 20.1075 104.219 19.9803 104.176 19.8742L110.292 13.7863H110.285ZM117.545 19.45C117.474 19.5277 117.41 19.6197 117.36 19.7186H109.923C109.873 19.6267 109.816 19.5348 109.752 19.4641C109.333 19.0469 108.644 19.0469 108.225 19.4641C107.806 19.8813 107.806 20.5671 108.225 20.9843C108.644 21.4015 109.333 21.4015 109.752 20.9843H109.745C109.838 20.8924 109.923 20.7722 109.973 20.6449H117.318C117.367 20.7651 117.445 20.8712 117.538 20.9702C117.957 21.3874 118.646 21.3874 119.065 20.9702C119.484 20.553 119.484 19.8671 119.065 19.45C118.646 19.0328 117.957 19.0328 117.538 19.45H117.545ZM125.074 19.1459C124.939 19.1459 124.804 19.1742 124.67 19.2237L118.596 13.1782C118.646 13.058 118.674 12.9236 118.674 12.7893C118.674 12.1953 118.191 11.7145 117.595 11.7145C116.998 11.7145 116.515 12.1953 116.515 12.7893C116.515 13.3832 116.998 13.864 117.595 13.864C117.708 13.864 117.808 13.8428 117.914 13.8004L124.059 19.9166C124.03 20.0085 124.002 20.1146 123.995 20.2207C123.995 20.8146 124.478 21.2954 125.074 21.2954C125.671 21.2954 126.154 20.8146 126.154 20.2207C126.154 19.6267 125.671 19.1459 125.074 19.1459ZM175.927 11.7216C175.331 11.7216 174.848 12.2024 174.848 12.7963C174.848 12.9165 174.876 13.0438 174.919 13.1499L168.803 19.2378C168.753 19.2166 168.696 19.1883 168.654 19.1742C168.455 19.1318 168.256 19.1601 168.064 19.2378L165.734 16.9045C165.784 16.7843 165.812 16.6499 165.812 16.5156C165.812 15.9216 165.329 15.4408 164.733 15.4408C164.136 15.4408 163.653 15.9216 163.653 16.5156C163.653 17.1095 164.136 17.5903 164.733 17.5903C164.846 17.5903 164.946 17.5691 165.052 17.5267L167.41 19.9025C167.41 19.9025 167.382 19.9732 167.361 20.0085C167.24 20.5954 167.616 21.1611 168.199 21.2813C168.781 21.4015 169.357 21.0267 169.478 20.4469C169.506 20.2631 169.492 20.0863 169.435 19.9096L175.565 13.8075H175.572C175.686 13.8357 175.8 13.864 175.92 13.8711C176.517 13.8711 177 13.3903 177 12.7963C177 12.2024 176.517 11.7216 175.92 11.7216H175.927ZM161.55 13.5741C161.621 13.4964 161.685 13.4044 161.735 13.3054H169.172C169.222 13.3974 169.279 13.4893 169.343 13.56C169.762 13.9772 170.451 13.9772 170.87 13.56C171.289 13.1428 171.289 12.4569 170.87 12.0398C170.451 11.6226 169.762 11.6226 169.343 12.0398H169.35C169.257 12.1317 169.172 12.2519 169.122 12.3792H161.778C161.728 12.259 161.65 12.1529 161.557 12.0539C161.138 11.6367 160.449 11.6367 160.03 12.0539C159.611 12.4711 159.611 13.157 160.03 13.5741C160.449 13.9913 161.138 13.9913 161.557 13.5741H161.55ZM131.19 13.5741C131.261 13.4964 131.325 13.4044 131.375 13.3054H134.11C134.16 13.3974 134.216 13.4893 134.28 13.56C134.699 13.9772 135.389 13.9772 135.808 13.56C136.227 13.1428 136.227 12.4569 135.808 12.0398C135.389 11.6226 134.699 11.6226 134.28 12.0398H134.287C134.195 12.1317 134.11 12.2519 134.06 12.3792H131.418C131.368 12.259 131.29 12.1529 131.198 12.0539C130.778 11.6367 130.089 11.6367 129.67 12.0539C129.251 12.4711 129.251 13.157 129.67 13.5741C130.089 13.9913 130.778 13.9913 131.198 13.5741H131.19ZM148.381 19.45C148.288 19.5419 148.203 19.6621 148.153 19.7894H145.511C145.461 19.6692 145.383 19.5631 145.291 19.4641C144.872 19.0469 144.182 19.0469 143.763 19.4641C143.344 19.8813 143.344 20.5671 143.763 20.9843C144.182 21.4015 144.872 21.4015 145.291 20.9843C145.362 20.9065 145.426 20.8146 145.475 20.7156H148.21C148.26 20.8075 148.317 20.8995 148.381 20.9702C148.8 21.3874 149.489 21.3874 149.908 20.9702C150.327 20.553 150.327 19.8671 149.908 19.45C149.489 19.0328 148.8 19.0328 148.381 19.45ZM139.494 2.66391C139.608 2.66391 139.707 2.64269 139.814 2.60027L145.93 8.68822C145.93 8.68822 145.901 8.75892 145.88 8.79428C145.759 9.38115 146.136 9.94682 146.718 10.067C147.301 10.1872 147.876 9.81247 147.997 9.23267C148.025 9.04883 148.011 8.87206 147.954 8.69529L154.085 2.5932C154.198 2.62148 154.312 2.64976 154.433 2.65683C155.029 2.65683 155.512 2.17602 155.512 1.58208C155.512 0.988129 155.029 0.507315 154.433 0.507315C153.836 0.507315 153.353 0.988129 153.353 1.58208C153.353 1.70228 153.381 1.82955 153.424 1.93562L147.308 8.02356C147.258 8.00235 147.201 7.97407 147.159 7.95992C146.96 7.9175 146.761 7.94578 146.569 8.02356L140.496 1.97804C140.546 1.85784 140.574 1.72349 140.574 1.58915C140.574 0.9952 140.091 0.514386 139.494 0.514386C138.898 0.514386 138.415 0.9952 138.415 1.58915C138.415 2.18309 138.898 2.66391 139.494 2.66391ZM153.935 7.98821C153.822 7.95993 153.708 7.93164 153.587 7.92457C152.991 7.92457 152.508 8.40539 152.508 8.99933C152.508 9.59328 152.991 10.0741 153.587 10.0741C154.184 10.0741 154.667 9.59328 154.667 8.99933C154.667 8.87913 154.639 8.75185 154.596 8.64579L160.712 2.55784C160.762 2.57906 160.819 2.60734 160.861 2.62148C161.06 2.66391 161.259 2.63562 161.451 2.55784L167.524 8.60337C167.474 8.72357 167.446 8.85792 167.446 8.99226C167.446 9.58621 167.929 10.067 168.526 10.067C169.122 10.067 169.605 9.58621 169.605 8.99226C169.605 8.39832 169.122 7.9175 168.526 7.9175C168.412 7.9175 168.313 7.93871 168.206 7.98114L162.09 1.89319C162.09 1.89319 162.118 1.82248 162.14 1.78713C162.261 1.20025 161.884 0.63459 161.302 0.514386C160.719 0.394183 160.144 0.768935 160.023 1.34874C159.995 1.53258 160.009 1.70935 160.066 1.88612L153.935 7.98821ZM168.44 2.65683C168.575 2.65683 168.71 2.62855 168.845 2.57906L174.919 8.62458C174.869 8.74478 174.841 8.87913 174.841 9.01347C174.841 9.60742 175.324 10.0882 175.92 10.0882C176.517 10.0882 177 9.60742 177 9.01347C177 8.41953 176.517 7.93871 175.92 7.93871C175.807 7.93871 175.707 7.95993 175.601 8.00235L169.456 1.88612C169.485 1.7942 169.513 1.68814 169.52 1.58208C169.52 0.988129 169.037 0.507315 168.44 0.507315C167.844 0.507315 167.361 0.988129 167.361 1.58208C167.361 2.17602 167.844 2.65683 168.44 2.65683ZM117.73 7.98821H117.722C117.609 7.95993 117.495 7.93164 117.374 7.92457C116.778 7.92457 116.295 8.40539 116.295 8.99933C116.295 9.59328 116.778 10.0741 117.374 10.0741C117.971 10.0741 118.454 9.59328 118.454 8.99933C118.454 8.87913 118.426 8.75185 118.383 8.64579L124.499 2.55784C124.549 2.57906 124.606 2.60734 124.648 2.62148C124.847 2.66391 125.046 2.63562 125.238 2.55784L127.568 4.89121C127.518 5.01141 127.49 5.14575 127.49 5.2801C127.49 5.87404 127.973 6.35486 128.569 6.35486C129.166 6.35486 129.649 5.87404 129.649 5.2801C129.649 4.68615 129.166 4.20534 128.569 4.20534C128.456 4.20534 128.356 4.22655 128.25 4.26898L125.891 1.89319C125.891 1.89319 125.92 1.82248 125.941 1.78713C126.062 1.20025 125.685 0.63459 125.103 0.514386C124.52 0.394183 123.945 0.768935 123.824 1.34874C123.796 1.53258 123.81 1.70935 123.867 1.88612L117.737 7.98821H117.73ZM131.531 9.43065C131.581 9.55085 131.659 9.65691 131.752 9.75591C132.171 10.1731 132.86 10.1731 133.279 9.75591C133.698 9.33873 133.698 8.65286 133.279 8.23569C132.86 7.81851 132.171 7.81851 131.752 8.23569C131.681 8.31347 131.617 8.39831 131.567 8.50438H124.13C124.08 8.41246 124.023 8.32054 123.959 8.24983C123.54 7.83265 122.851 7.83265 122.432 8.24983C122.013 8.66701 122.013 9.35287 122.432 9.77005C122.851 10.1872 123.54 10.1872 123.959 9.77005H123.952C124.044 9.67813 124.13 9.55792 124.179 9.43065H131.524H131.531ZM131.801 2.64976C131.915 2.64976 132.014 2.62855 132.121 2.58613L138.265 8.70236C138.237 8.79428 138.209 8.90034 138.201 9.0064C138.201 9.60035 138.684 10.0812 139.281 10.0812C139.878 10.0812 140.361 9.60035 140.361 9.0064C140.361 8.41246 139.878 7.93164 139.281 7.93164C139.146 7.93164 139.011 7.95993 138.876 8.00942L132.803 1.9639C132.853 1.84369 132.881 1.70935 132.881 1.575C132.881 0.981058 132.398 0.500246 131.801 0.500246C131.205 0.500246 130.722 0.981058 130.722 1.575C130.722 2.16895 131.205 2.64976 131.801 2.64976ZM145.404 2.35986C145.475 2.28208 145.539 2.19016 145.589 2.09117H148.324C148.373 2.18309 148.43 2.27501 148.487 2.34572C148.906 2.7629 149.595 2.7629 150.014 2.34572C150.433 1.92854 150.433 1.24268 150.014 0.825501C149.595 0.408325 148.906 0.408325 148.487 0.825501H148.494C148.402 0.917422 148.317 1.03762 148.267 1.1649H145.624C145.575 1.0447 145.497 0.938634 145.404 0.839643C144.985 0.422467 144.296 0.422467 143.877 0.839643C143.458 1.25682 143.458 1.94269 143.877 2.35986C144.296 2.77704 144.985 2.77704 145.404 2.35986ZM159.732 8.58215C159.682 8.46195 159.604 8.35589 159.512 8.2569C159.092 7.83972 158.403 7.83972 157.984 8.2569C157.565 8.67408 157.565 9.35994 157.984 9.77712C158.403 10.1943 159.092 10.1943 159.512 9.77712C159.583 9.69934 159.647 9.60742 159.696 9.50843H162.431C162.481 9.60035 162.538 9.69227 162.602 9.76298C163.021 10.1802 163.71 10.1802 164.129 9.76298C164.548 9.3458 164.548 8.65993 164.129 8.24276C163.71 7.82558 163.021 7.82558 162.602 8.24276H162.609C162.516 8.33468 162.431 8.45488 162.381 8.58215H159.739H159.732ZM110.917 8.03063C110.868 8.00942 110.811 7.98114 110.768 7.967C110.569 7.92457 110.37 7.95286 110.179 8.03063L107.849 5.69728C107.898 5.57707 107.927 5.44272 107.927 5.30838C107.927 4.71443 107.444 4.23362 106.847 4.23362C106.25 4.23362 105.767 4.71443 105.767 5.30838C105.767 5.90233 106.25 6.38314 106.847 6.38314C106.961 6.38314 107.06 6.36193 107.167 6.3195L109.525 8.69529C109.525 8.69529 109.497 8.766 109.475 8.80135C109.355 9.38823 109.731 9.95389 110.314 10.0741C110.896 10.1943 111.471 9.81954 111.592 9.23974C111.621 9.0559 111.606 8.87913 111.55 8.70236L117.68 2.60027H117.687C117.801 2.62855 117.914 2.65684 118.035 2.66391C118.632 2.66391 119.115 2.18309 119.115 1.58915C119.115 0.9952 118.632 0.514386 118.035 0.514386C117.438 0.514386 116.955 0.9952 116.955 1.58915C116.955 1.70935 116.984 1.83662 117.026 1.94269L110.91 8.03063H110.917ZM103.658 2.36693C103.729 2.28915 103.793 2.19724 103.842 2.09824H111.28C111.329 2.19016 111.386 2.28209 111.45 2.35279C111.869 2.76997 112.558 2.76997 112.977 2.35279C113.396 1.93562 113.396 1.24975 112.977 0.832572C112.558 0.415396 111.869 0.415396 111.45 0.832572H111.457C111.365 0.924493 111.28 1.0447 111.23 1.17197H103.885C103.835 1.05177 103.757 0.945705 103.665 0.846714C103.246 0.429538 102.557 0.429538 102.138 0.846714C101.719 1.26389 101.719 1.94976 102.138 2.36693C102.557 2.78411 103.246 2.78411 103.665 2.36693H103.658Z" fill="white"/>
<path d="M12.6353 72.1768C12.6353 72.9051 12.5571 73.5697 12.3937 74.1849C12.2304 74.8 11.9746 75.3233 11.6124 75.7687C11.2572 76.2142 10.7884 76.5606 10.213 76.8081C9.63763 77.0556 8.9273 77.1829 8.0891 77.1829C7.4427 77.1829 6.83181 77.0839 6.25643 76.893C5.68106 76.7021 5.18383 76.4192 4.76473 76.0586C4.34563 75.698 4.01177 75.2455 3.77025 74.701C3.52874 74.1637 3.40798 73.5485 3.40798 72.8768C3.40798 72.4384 3.47191 71.8586 3.59978 71.1232C3.72764 70.3879 4.02597 69.5889 4.5019 68.7192C4.27459 68.6555 4.05439 68.5989 3.83418 68.5494C3.61398 68.5 3.39378 68.4434 3.16647 68.3798C2.47034 69.1575 1.92338 70.0343 1.5398 71.0172C1.14911 72 0.957322 73.0323 0.957322 74.1142C0.957322 74.8849 1.09229 75.6485 1.36932 76.398C1.64635 77.1475 2.07255 77.8263 2.65503 78.4273C3.2375 79.0354 3.99046 79.5233 4.90679 79.891C5.82313 80.2587 6.91705 80.4496 8.20276 80.4496C9.11199 80.4496 9.97149 80.3365 10.7884 80.1102C11.6053 79.8839 12.3582 79.5516 13.0401 79.1203C13.7221 78.6819 14.3188 78.1516 14.8302 77.5223C15.3416 76.893 15.7394 76.1647 16.0307 75.3445C16.194 74.9273 16.3148 74.3475 16.3929 73.6051C16.4711 72.8626 16.5137 71.8869 16.5137 70.6778V66.902H12.6495V72.1768H12.6353ZM9.82942 61.9171C10.1775 61.5635 10.3551 61.1322 10.3551 60.6372C10.3551 60.1423 10.1775 59.711 9.82942 59.3645C9.48136 59.018 9.04806 58.8413 8.52951 58.8413C8.01096 58.8413 7.58476 59.018 7.2438 59.3645C6.90284 59.711 6.73236 60.1352 6.73236 60.6372C6.73236 61.1393 6.90284 61.5635 7.2438 61.9171C7.58476 62.2706 8.01096 62.4474 8.52951 62.4474C9.04806 62.4474 9.48136 62.2706 9.82942 61.9171ZM138.045 61.2595C138.564 61.2595 138.997 61.0827 139.352 60.7292C139.693 60.3685 139.871 59.9443 139.871 59.4423C139.871 58.9403 139.693 58.5231 139.352 58.1695C138.997 57.8301 138.564 57.6534 138.045 57.6534C137.527 57.6534 137.115 57.8301 136.767 58.1695C136.411 58.5231 136.248 58.9403 136.248 59.4423C136.248 59.9443 136.411 60.3685 136.767 60.7292C137.108 61.0827 137.541 61.2595 138.045 61.2595ZM141.235 53.8069C140.737 53.8069 140.311 53.9836 139.956 54.323C139.615 54.6766 139.437 55.0937 139.437 55.5958C139.437 56.0978 139.615 56.522 139.956 56.8756C140.311 57.215 140.73 57.3917 141.235 57.3917C141.739 57.3917 142.186 57.215 142.542 56.8756C142.883 56.522 143.06 56.1049 143.06 55.5958C143.06 55.0867 142.883 54.6766 142.542 54.323C142.186 53.9836 141.76 53.8069 141.235 53.8069ZM115.705 62.2564C116.224 62.2564 116.657 62.0797 117.012 61.7191C117.353 61.3655 117.531 60.9342 117.531 60.4393C117.531 59.9443 117.353 59.513 117.012 59.1665C116.657 58.813 116.224 58.6503 115.705 58.6503C115.187 58.6503 114.76 58.813 114.419 59.1665C114.078 59.5059 113.908 59.9372 113.908 60.4393C113.908 60.9413 114.071 61.3655 114.419 61.7191C114.76 62.0797 115.187 62.2564 115.705 62.2564ZM36.1332 57.6534C35.636 57.6534 35.2026 57.8301 34.8546 58.1695C34.4994 58.5231 34.336 58.9403 34.336 59.4423C34.336 59.9443 34.4994 60.3685 34.8546 60.7292C35.1955 61.0827 35.6288 61.2595 36.1332 61.2595C36.6375 61.2595 37.085 61.0827 37.4402 60.7292C37.7812 60.3685 37.9588 59.9443 37.9588 59.4423C37.9588 58.9403 37.7812 58.5231 37.4402 58.1695C37.085 57.8301 36.6588 57.6534 36.1332 57.6534ZM38.044 54.323C37.703 54.6766 37.5254 55.0937 37.5254 55.5958C37.5254 56.0978 37.703 56.522 38.044 56.8756C38.3992 57.215 38.8183 57.3917 39.3226 57.3917C39.8269 57.3917 40.2744 57.215 40.6296 56.8756C40.9706 56.522 41.1482 56.1049 41.1482 55.5958C41.1482 55.0867 40.9706 54.6766 40.6296 54.323C40.2744 53.9836 39.8411 53.8069 39.3226 53.8069C38.8041 53.8069 38.3992 53.9836 38.044 54.323ZM144.445 61.2383C144.964 61.2383 145.397 61.0615 145.752 60.7079C146.093 60.3685 146.271 59.9443 146.271 59.4352C146.271 58.9261 146.093 58.516 145.752 58.1625C145.397 57.8231 144.964 57.6463 144.445 57.6463C143.927 57.6463 143.501 57.8231 143.16 58.1625C142.819 58.516 142.648 58.9332 142.648 59.4352C142.648 59.9372 142.812 60.3615 143.16 60.7079C143.501 61.0615 143.934 61.2383 144.445 61.2383ZM146.718 72.3606H145.021C144.353 72.3606 143.891 72.1273 143.614 71.6394C143.351 71.1515 143.224 70.5434 143.224 69.801V65.4454H139.359V70.7697C139.359 71.3353 139.26 71.7384 139.075 71.9929C138.89 72.2475 138.585 72.3606 138.166 72.3606H137.342C136.674 72.3606 136.213 72.1273 135.95 71.6394C135.673 71.1515 135.545 70.5434 135.545 69.801V66.8737H131.681V70.7697C131.681 71.3353 131.581 71.7384 131.396 71.9929C131.212 72.2475 130.906 72.3606 130.487 72.3606H125.522C124.819 72.3606 124.321 72.1273 124.052 71.6394C123.789 71.1515 123.661 70.5434 123.661 69.801V66.8878H119.797V72.1909C119.797 72.9121 119.711 73.5909 119.548 74.1849C119.385 74.793 119.129 75.3162 118.774 75.7546C118.411 76.2071 117.95 76.5465 117.367 76.8011C116.785 77.0556 116.082 77.1687 115.236 77.1687C114.59 77.1687 113.979 77.0839 113.404 76.8859C112.835 76.6879 112.331 76.4051 111.912 76.0445C111.493 75.6839 111.159 75.2313 110.91 74.6869C110.676 74.1495 110.548 73.5414 110.548 72.8626C110.548 72.4313 110.619 71.8444 110.747 71.1232C110.875 70.402 111.18 69.603 111.649 68.7333C111.415 68.6626 111.194 68.606 110.974 68.5494C110.761 68.4929 110.534 68.4292 110.307 68.3727C109.61 69.1434 109.071 70.0202 108.68 71.0101C108.296 71.9858 108.104 73.0253 108.104 74.1071C108.104 74.8778 108.239 75.6485 108.516 76.4051C108.794 77.1687 109.22 77.8405 109.802 78.4344C110.392 79.0283 111.138 79.5162 112.061 79.891C112.97 80.2587 114.071 80.4496 115.35 80.4496C116.259 80.4496 117.126 80.3294 117.943 80.1102C118.76 79.8839 119.513 79.5657 120.187 79.1344C120.876 78.7031 121.466 78.1799 121.97 77.5293C122.482 76.893 122.879 76.1647 123.178 75.3445C123.228 75.2172 123.263 75.0404 123.313 74.8283C123.355 74.6162 123.391 74.3687 123.434 74.1071C123.476 73.8313 123.512 73.5626 123.54 73.2657C123.569 72.9758 123.597 72.7 123.618 72.4454C123.668 72.7707 123.753 73.0818 123.895 73.3859C124.03 73.697 124.222 73.9727 124.442 74.2131C124.67 74.4465 124.932 74.6445 125.231 74.793C125.359 74.8495 125.486 74.899 125.621 74.9273C125.721 74.9839 125.856 75.0051 126.026 75.0051H131.943C132.895 75.0051 133.662 74.8 134.216 74.3899C134.785 73.9798 135.161 73.3364 135.332 72.4667C135.403 72.7778 135.495 73.0818 135.637 73.3859C135.772 73.697 135.964 73.9727 136.198 74.2131C136.433 74.4465 136.71 74.6445 137.015 74.793C137.328 74.9414 137.683 75.0051 138.088 75.0051H139.615C140.574 75.0051 141.334 74.8 141.902 74.3899C142.471 73.9798 142.847 73.3364 143.018 72.4667C143.089 72.7778 143.181 73.0818 143.323 73.3859C143.458 73.697 143.65 73.9727 143.884 74.2131C144.119 74.4465 144.396 74.6445 144.701 74.793C145.014 74.9414 145.369 75.0051 145.774 75.0051H150.661V63.9817H146.747V72.3747L146.718 72.3606ZM42.5333 57.6534C42.0219 57.6534 41.5886 57.8301 41.2476 58.1695C40.9067 58.5231 40.7362 58.9403 40.7362 59.4423C40.7362 59.9443 40.8995 60.3685 41.2476 60.715C41.5886 61.0686 42.0219 61.2453 42.5333 61.2453C43.0448 61.2453 43.4852 61.0686 43.8403 60.715C44.1813 60.3756 44.3589 59.9514 44.3589 59.4423C44.3589 58.9332 44.1813 58.5231 43.8403 58.1695C43.4852 57.8301 43.0519 57.6534 42.5333 57.6534ZM162.58 63.9746H161.408C157.295 63.9746 154.916 67.1494 154.916 70.6141C154.916 72.0141 155.306 73.6121 156.081 74.998H162.545C162.396 76.9849 161.536 77.692 159.448 77.692H156.869L156.592 78.8374C156.592 78.8374 158.716 80.2516 161.202 80.2516C164.107 80.2516 166.459 78.8021 166.459 74.5101V63.9676H162.573L162.58 63.9746ZM162.58 72.3677H159.242C158.95 71.8374 158.78 71.2434 158.78 70.6212C158.78 68.4222 159.377 66.6333 161.813 66.6333H162.58V72.3677ZM96.3484 60.3898C93.5994 60.3898 90.1614 62.412 90.1614 62.412L90.8362 63.9746C89.9838 63.9746 89.1598 64.1231 88.3856 64.4343C87.6113 64.7383 86.9151 65.1767 86.3185 65.7423C85.7218 66.3009 85.2459 66.9797 84.8978 67.7717C84.5568 68.5636 84.3792 69.4404 84.3792 70.4303C84.3792 71.0242 84.4503 71.6677 84.5781 72.3606H80.1954V55.9352H76.3311V75.0051H83.4416C83.4416 75.0051 83.4629 75.0051 83.4771 75.0051H102.812C102.812 75.0051 103.402 70.7202 102.812 66.3292C102.109 61.0756 98.4297 60.3898 96.3626 60.3898H96.3484ZM92.0509 72.3677H88.6271C88.4637 72 88.35 71.6182 88.2932 71.2081C88.2364 70.805 88.2151 70.3949 88.2151 69.9777C88.2151 69.3555 88.2932 68.8252 88.4708 68.3939C88.6342 67.9626 88.8402 67.6232 89.0959 67.3686C89.3516 67.107 89.6144 66.9161 89.8986 66.81C90.1827 66.6898 90.4384 66.6333 90.6657 66.6333C91.1417 66.6333 91.8378 66.803 91.987 68.2383C92.0438 68.7828 92.0438 69.3484 92.0438 69.9282V72.3677H92.0509ZM98.8914 72.3677H95.8725V70.4798C95.8725 69.4121 95.8015 68.3303 95.7233 67.2272C95.5173 64.3706 91.6744 63.9746 91.6744 63.9746C92.4487 63.4797 93.8409 62.7655 95.3184 62.8787C97.1866 63.0201 98.5931 63.9747 98.8914 67.1848C99.0761 69.1434 98.8914 72.3606 98.8914 72.3606V72.3677ZM69.3627 64.3282C68.8655 63.8757 68.2617 63.5645 67.5798 63.3736C66.8908 63.1757 66.1449 63.0625 65.3351 63.013H61.137C61.7621 62.0231 64.2483 58.12 64.8876 57.1513C64.3762 56.8119 62.4085 55.4897 61.9113 55.1715C61.0163 56.5786 57.5143 62.1362 56.6406 63.5433V65.509H64.4259C64.8947 65.509 65.2996 65.5868 65.6335 65.7636C65.9673 65.9262 66.2301 66.1666 66.4504 66.4636C66.6563 66.7535 66.8126 67.107 66.9121 67.4959C67.0115 67.8989 67.0612 68.3161 67.0612 68.7686V72.3747H52.7977V55.9493H48.9406V75.0121H70.9468V68.804C70.9468 67.701 70.8118 66.7888 70.5348 66.0817C70.2578 65.3676 69.8671 64.7807 69.3698 64.3423L69.3627 64.3282ZM40.2602 72.3677H32.2974V63.9746H27.2398C23.1269 63.9746 20.7473 67.1494 20.7473 70.6141C20.7473 72.0141 21.138 73.6121 21.9123 74.998H28.3763C28.2271 76.9849 27.3676 77.692 25.2792 77.692H22.7007L22.4237 78.8374C22.4237 78.8374 24.5476 80.2516 27.0338 80.2516C29.8254 80.2516 32.0985 78.9081 32.2761 74.998H44.1458V63.9676H40.2531V72.3606L40.2602 72.3677ZM28.4118 72.3677H25.0732C24.782 71.8374 24.6115 71.2434 24.6115 70.6212C24.6115 68.4222 25.2082 66.6333 27.6447 66.6333H28.4118V72.3677ZM173.107 74.3404C173.107 76.8506 172.291 77.699 169.975 77.699H167.396L167.119 78.8445C167.119 78.8445 169.243 80.2587 171.729 80.2587C174.635 80.2587 176.986 78.8092 176.986 74.5172V63.9746H173.1V74.3404H173.107ZM62.0037 12.6195H71.1457V21.9742H75.1946V0.641607H71.1457V10.0599H62.0037V0.641607H57.9547V21.9742H62.0037V12.6195ZM83.3919 6.02955L93.6278 21.9742H97.2861V9.97505H97.2932V0.641607H94.324V16.4943L93.23 14.7478C93.1519 14.6135 93.0667 14.4721 92.9743 14.3094L92.3137 13.2771L84.2656 0.641607H80.4156V21.9742H83.3919V6.02955ZM83.3564 42.1259H90.0193L92.2285 48.6735H95.7446L88.7123 28.6844H85.4519L78.1922 48.6735H81.1969L83.3493 42.1259H83.3564ZM85.9917 33.9379C86.1977 33.2804 86.3611 32.743 86.4747 32.3258C86.5529 32.0783 86.6168 31.8521 86.6736 31.647C86.6949 31.8167 86.7305 32.0076 86.7873 32.2127C86.8228 32.4177 86.8796 32.6652 86.9578 32.948C87.0359 33.2309 87.1496 33.5773 87.2987 33.9945L89.3445 40.1249H83.9815L85.9988 33.9379H85.9917ZM174.443 28.7409V43.7593C174.422 43.6674 174.379 43.533 174.301 43.3633C174.223 43.2148 174.123 43.0168 173.988 42.7835C173.853 42.5502 173.669 42.239 173.42 41.8643L164.484 28.7338H161.593V48.6664H164.143V33.3652C164.178 33.4783 164.235 33.6268 164.313 33.8177L164.612 34.4117C164.733 34.6592 164.91 34.942 165.137 35.2602L174.329 48.6735H176.993V28.7409H174.443ZM120.145 39.4956H128.995V48.6735H132.398V28.7409H128.995V37.24H120.145V28.7409H116.742V48.6735H120.145V39.4956ZM156.23 38.3077C156.23 35.1258 155.42 32.6864 153.8 30.9824C152.181 29.2783 149.901 28.4298 146.953 28.4298C145.518 28.4298 144.232 28.6702 143.096 29.151C141.959 29.6318 140.993 30.3248 140.205 31.2228C139.409 32.1278 138.805 33.245 138.386 34.5672C137.967 35.8966 137.761 37.4026 137.761 39.0996C137.761 42.2815 138.571 44.7209 140.183 46.425C141.803 48.129 144.083 48.9775 147.031 48.9775C148.466 48.9775 149.752 48.7371 150.888 48.2563C152.025 47.7755 152.991 47.0825 153.779 46.1775C154.575 45.2724 155.178 44.1552 155.598 42.833C156.017 41.5037 156.223 39.9976 156.223 38.3006L156.23 38.3077ZM147.038 46.7785C143.259 46.7785 141.362 44.1057 141.362 38.7602C141.362 33.4147 143.238 30.6288 146.981 30.6288C150.725 30.6288 152.657 33.2945 152.657 38.6188C152.657 43.9431 150.789 46.7785 147.038 46.7785ZM10.5682 11.6013C11.3566 11.3609 12.0954 10.9932 12.7489 10.4983C13.2817 10.074 13.786 9.48716 14.2406 8.7518C14.6952 8.02351 14.9225 7.06895 14.9225 5.90934C14.9225 4.65074 14.5247 3.57598 13.7363 2.72042C12.9478 1.85778 11.8823 1.26384 10.5753 0.952722C9.91467 0.804236 9.1333 0.705245 8.25248 0.66282C7.35745 0.613324 6.3985 0.592112 5.41113 0.592112C4.77183 0.592112 4.16094 0.606254 3.58557 0.620396C3.0244 0.641608 2.53427 0.655749 2.12227 0.676962C1.68897 0.691103 1.30539 0.712316 0.950219 0.726457V12.7256H0.943115V21.953H4.84286V12.2165H6.47664L12.8555 22.0025H17.6218L10.348 11.665L10.5682 11.6013ZM9.06936 10.0882V10.1023C8.76392 10.2508 8.47268 10.3498 8.21696 10.4134C7.96124 10.47 7.70552 10.5124 7.4498 10.5336C7.20118 10.5549 6.8318 10.5619 6.35588 10.5619H5.72368C5.53189 10.5619 5.05596 10.5195 4.95652 10.4983L4.83576 10.47V2.46587H4.99914C5.07017 2.46587 5.16962 2.4588 5.28327 2.43759C5.41113 2.43759 5.5461 2.43759 5.71658 2.42345C5.89416 2.41637 6.12147 2.4093 6.3914 2.4093C7.01649 2.4093 7.60607 2.46587 8.13883 2.579C8.68578 2.69921 9.16881 2.91133 9.57371 3.21537C9.9857 3.52649 10.3054 3.94366 10.5327 4.4669C10.7529 4.98307 10.8665 5.63358 10.8665 6.4043C10.8665 7.11845 10.7742 7.71947 10.5966 8.19321C10.4119 8.66695 10.1917 9.06999 9.94308 9.3811C9.68025 9.69929 9.38902 9.93969 9.06936 10.0882ZM13.1964 37.24H4.34563V28.7409H0.943115V48.6735H4.34563V39.4956H13.1964V48.6735H16.5989V28.7409H13.1964V37.24ZM48.8979 19.0539C48.1095 19.4994 47.0369 19.7186 45.7227 19.7186C44.9982 19.7186 44.3447 19.6691 43.7835 19.563C43.2223 19.457 42.7393 19.3438 42.3486 19.2236C41.9579 19.1034 41.6028 18.962 41.2902 18.8065L40.4165 21.3024C40.8498 21.458 41.34 21.6065 41.8798 21.7338C42.4055 21.854 43.059 21.9671 43.8048 22.0661C44.5578 22.1651 45.4386 22.2146 46.4331 22.2146C48.8908 22.2146 50.7803 21.656 52.0589 20.5529C53.3304 19.457 53.9768 17.8943 53.9768 15.9074C53.9768 14.5569 53.6643 13.4539 53.0392 12.6124C52.407 11.764 51.4552 10.965 50.205 10.2508L47.4915 8.68816C46.6035 8.172 45.9216 7.70533 45.4599 7.30229C44.9769 6.87097 44.7283 6.29117 44.7283 5.56995C44.7283 4.96186 44.8632 4.47398 45.1332 4.12044C45.396 3.77397 45.7298 3.50528 46.1205 3.32144C46.5041 3.1376 46.9161 3.02446 47.3565 2.9679C47.7827 2.9184 48.1734 2.89012 48.5001 2.89012C49.1608 2.89012 49.7646 2.93961 50.2831 3.03153C50.7945 3.12345 51.2349 3.22244 51.5901 3.32851C51.924 3.43457 52.2223 3.55477 52.4993 3.68205L53.3446 1.17899C53.0108 1.04464 52.613 0.924439 52.1513 0.818377C51.6896 0.719386 51.1 0.620395 50.411 0.528475C49.7219 0.436554 48.8979 0.394129 47.9674 0.394129C45.7156 0.394129 43.9682 0.903227 42.7677 1.90728C41.5815 2.90426 40.9777 4.38205 40.9777 6.31238C40.9777 7.04774 41.0842 7.69118 41.2902 8.23563C41.4962 8.78008 41.7804 9.26797 42.1284 9.67807C42.4765 10.0952 42.8743 10.47 43.3005 10.7882C43.7409 11.1134 44.1955 11.4104 44.6572 11.665L47.8679 13.567C48.6422 14.0478 49.2176 14.5003 49.5728 14.9175C49.9421 15.3559 50.1339 15.9286 50.1339 16.6145C50.1339 17.7741 49.7148 18.6014 48.8979 19.0539ZM32.3258 21.5429C33.5476 21.0338 34.5989 20.2913 35.4442 19.3297C36.2895 18.3681 36.943 17.1731 37.3976 15.766C37.8522 14.3589 38.0866 12.7327 38.0866 10.9367C38.0866 7.50027 37.22 4.83458 35.5081 3.01032C33.8033 1.19313 31.3029 0.273926 28.078 0.273926H28.0709C26.5152 0.273926 25.1088 0.535545 23.8799 1.04464C22.6581 1.55374 21.5997 2.30324 20.7473 3.27194C19.8949 4.24064 19.2272 5.44267 18.7797 6.84976C18.3251 8.25684 18.0977 9.88313 18.0977 11.6791C18.0977 15.1155 18.9715 17.7812 20.6905 19.5913C22.4095 21.4014 24.9099 22.3136 28.1348 22.3136C29.6904 22.3136 31.0969 22.052 32.3258 21.5429ZM23.7449 17.7034C22.8499 16.3317 22.3953 14.1963 22.3953 11.368C22.3953 8.53968 22.8641 6.32652 23.7804 4.91943C24.711 3.49113 26.1672 2.76992 28.1064 2.76992C30.0456 2.76992 31.5515 3.48407 32.4465 4.89115C33.3345 6.27703 33.782 8.4124 33.782 11.2407C33.782 14.069 33.3203 16.2751 32.4181 17.6681H32.411C31.4876 19.0893 30.0385 19.8105 28.0993 19.8105C26.1601 19.8105 24.6541 19.1034 23.7449 17.7034ZM25.2508 12.9377H31.5302L28.3905 9.19019L25.2508 12.9377ZM53.5648 48.7371C54.2468 48.6452 54.8221 48.5391 55.2981 48.426C55.845 48.2916 56.3281 48.1432 56.7472 47.9735L56.0084 45.7462C55.6888 45.9159 55.3194 46.0643 54.9003 46.1987C54.538 46.3118 54.1047 46.4108 53.5791 46.4957C53.0605 46.5805 52.478 46.6229 51.8316 46.6229C50.6383 46.6229 49.6225 46.4179 48.7843 46.0149C47.9461 45.6118 47.2571 45.0532 46.7314 44.3461C46.1987 43.6391 45.8151 42.8189 45.5665 41.8784C45.3178 40.938 45.1971 39.941 45.1971 38.8875C45.1971 37.834 45.2965 36.7592 45.4954 35.7834C45.6943 34.8076 46.0566 33.9379 46.5751 33.1884C47.0937 32.4389 47.7969 31.8379 48.6848 31.3925C49.5728 30.947 50.6951 30.7278 52.0589 30.7278C52.684 30.7278 53.2381 30.7773 53.7353 30.8692C54.2255 30.9611 54.6517 31.0601 55.0139 31.1521C55.4117 31.2652 55.7669 31.3995 56.0936 31.548L56.8324 29.3207C56.4701 29.1722 56.051 29.0379 55.5538 28.9248C55.1205 28.8328 54.6019 28.7409 53.991 28.6561C53.3873 28.5712 52.6698 28.5288 51.8387 28.5288C51.1 28.5288 50.3328 28.5924 49.5301 28.7126C48.7275 28.8328 47.9319 29.0591 47.1505 29.3914C46.3691 29.7238 45.6162 30.1763 44.9129 30.7632C44.2026 31.343 43.5846 32.0995 43.0519 33.0187C42.5617 33.8672 42.1995 34.8006 41.9722 35.8258C41.7448 36.8511 41.6312 37.9471 41.6312 39.1138C41.6312 40.6764 41.8514 42.0623 42.2989 43.2785C42.7464 44.4946 43.3786 45.5128 44.2026 46.3401C45.0266 47.1674 46.0353 47.7967 47.2215 48.2351C48.4149 48.6664 49.7432 48.8856 51.2207 48.8856C52.1087 48.8856 52.8971 48.8361 53.572 48.7442L53.5648 48.7371ZM28.1206 28.6914L20.861 48.6805H23.8657L26.018 42.133H32.681L34.8901 48.6805H38.4063L31.3739 28.6914H28.1135H28.1206ZM26.6431 40.1249L28.6604 33.9379C28.8664 33.2804 29.0298 32.743 29.1435 32.3258C29.2216 32.0783 29.2855 31.8521 29.3424 31.647C29.3637 31.8167 29.3992 32.0076 29.456 32.2127C29.4915 32.4177 29.5484 32.6652 29.6265 32.948C29.7046 33.2309 29.8183 33.5773 29.9675 33.9945L32.0132 40.1249H26.6502H26.6431ZM112.516 28.748H97.8543V30.9187H103.502V48.6805H106.876V30.9187H112.523V28.748H112.516ZM68.0628 37.6996L75.9476 28.748H72.2893L64.7171 38.0956V28.748H61.343V48.6805H64.7171V38.6259L71.8063 48.6805H76.0328L68.0628 37.6996Z" fill="white"/>
</svg>
